<?xml version="1.0" encoding="utf-8"?>
<svg version="1.1" baseProfile="basic" id="Calque_1" x="0px" y="0px" width="150px" height="150px" viewBox="0 0 150 150" xmlns="http://www.w3.org/2000/svg" xmlns:bx="https://boxy-svg.com">
  <defs>
    <path id="path-0" style="fill: none;" d="M 20.271 50.833 C 27.522 41.948 33.329 38.973 38.776 34.615 C 49.226 27.718 60.583 26.512 69.965 24.427 C 82.002 22.524 92.62 24.987 101.986 29.001 C 105.571 30.521 107.127 32.989 108.64 34.199 C 113.652 38.209 119.305 41.864 124.65 45.427 C 126.588 47.548 127.952 48.459 128.809 50.002 C 129.229 50.757 129.473 53.744 130.057 53.744 L 130.265 53.744"/>
    <linearGradient id="color-0" gradientUnits="userSpaceOnUse" bx:pinned="true">
      <stop style="stop-color: rgb(255, 0, 0);"/>
    </linearGradient>
    <linearGradient id="color-1" gradientUnits="userSpaceOnUse" bx:pinned="true">
      <stop style="stop-color: rgb(7, 96, 169)"/>
    </linearGradient>
    <linearGradient id="color-2" gradientUnits="userSpaceOnUse" gradientTransform="matrix(1, 0, 0, 1, -5.270643, 1.264954)" bx:pinned="true">
      <stop style="stop-color: rgb(246, 164, 6)"/>
    </linearGradient>
  </defs>
  <path fill-rule="evenodd" clip-rule="evenodd" fill="#0760A9" d="M 82.403 69.38 C 94.199 68.786 105.815 67.244 117.522 65.801 C 123.222 65.101 128.827 64.154 134.489 63.219 C 137.289 62.758 140.112 62.424 142.908 61.911 C 144.848 61.554 146.924 61.16 148.502 62.667 C 149.781 63.888 150.223 65.527 149.896 67.246 C 149.431 69.649 147.353 70.092 145.282 70.793 C 139.944 72.601 134.386 73.832 128.853 74.871 C 117.343 77.029 105.636 78.18 93.967 79.13 C 88.719 79.559 83.401 79.847 78.007 80.495 C 76.605 80.66 76.918 80.356 76.93 83.256 C 76.942 86.27 76.937 89.303 77.338 92.299 C 78.102 98.02 79.326 103.725 80.606 109.348 C 81.212 112.015 81.918 114.66 82.413 117.345 C 82.566 118.168 83.122 119.402 82.194 119.952 C 80.991 120.669 79.244 120.887 77.87 120.932 C 75.487 121.009 73.394 120.537 72.255 118.307 C 71.057 115.978 70.195 113.419 69.48 110.904 C 67.984 105.64 67.324 100.189 66.721 94.763 C 66.415 91.982 66.113 89.205 65.86 86.42 C 65.73 84.988 65.587 83.555 65.488 82.119 C 65.33 79.845 65.557 80.278 63.564 80.122 C 57.77 79.669 51.952 79.397 46.168 78.812 C 34.981 77.68 23.782 75.575 13.463 70.972 C 10.978 69.866 8.535 68.661 6.106 67.442 C 4.117 66.444 0.839 65.458 0.202 63.063 C -0.333 61.064 0.168 58.152 2.014 56.939 C 4.165 55.522 6.603 57.201 8.592 58.079 C 18.691 62.542 29.558 66.582 40.532 68.15 C 46.278 68.973 52.045 69.268 57.834 69.599 C 59.249 69.68 60.663 69.769 62.077 69.86 C 62.765 69.91 64.977 69.983 64.977 69.983 C 64.977 69.983 65.051 67.319 65.073 66.458 C 65.113 64.816 65.163 63.18 65.223 61.539 C 65.496 53.748 65.678 45.81 67.197 38.143 C 67.773 35.257 68.315 31.485 71.193 29.988 C 73.485 28.797 76.895 28.37 78.378 30.976 C 79.977 33.793 78.492 38.216 78.131 41.213 C 77.622 45.482 77.157 49.76 76.802 54.046 C 76.469 58.095 76.157 62.15 76.166 66.213 C 76.171 69.718 75.885 69.397 77.189 69.397 C 78.834 69.403 80.743 69.38 82.403 69.38 C 87.382 69.13 80.929 69.38 82.403 69.38 Z"/>
  <g transform="matrix(1.086647, 0, 0, 1.086647, -5.647165, -5.590641)">
    <path fill="#F6A406" stroke="#F6A406" stroke-width="0.3344" stroke-linecap="round" stroke-linejoin="round" stroke-miterlimit="22.9256" d="M 29.482 103.882 C 29.384 105.707 28.935 107.147 28.136 108.201 C 27.336 109.256 26.299 109.783 25.023 109.783 C 23.198 109.783 21.734 108.79 20.63 106.804 C 19.526 104.819 18.974 101.914 18.974 98.091 C 18.974 94.316 19.511 91.406 20.586 89.362 C 21.66 87.318 23.041 86.295 24.729 86.295 C 25.425 86.295 26.195 86.532 27.039 87.005 C 27.157 87.064 27.245 87.093 27.304 87.093 C 27.372 87.093 27.471 87.034 27.598 86.915 C 27.666 86.816 27.75 86.761 27.848 86.751 L 28.687 86.751 C 28.873 86.751 28.967 86.893 28.967 87.178 L 28.967 92.005 C 28.967 92.28 28.873 92.417 28.687 92.417 L 28.04 92.417 C 27.834 92.417 27.694 92.363 27.621 92.255 C 27.548 92.147 27.447 91.853 27.319 91.372 C 26.72 89.106 25.931 87.973 24.95 87.973 C 24.371 87.973 23.925 88.267 23.611 88.855 C 23.297 89.443 23.057 90.556 22.89 92.193 C 22.723 93.83 22.64 95.487 22.64 97.164 C 22.64 100.831 22.846 103.522 23.259 105.237 C 23.671 106.953 24.393 107.81 25.424 107.81 C 26.661 107.81 27.471 106.441 27.854 103.704 L 29.482 103.882 Z"/>
    <path fill="#F6A406" stroke="#F6A406" stroke-width="0.3344" stroke-linecap="round" stroke-linejoin="round" stroke-miterlimit="22.9256" d="M 39.062 98.993 L 39.062 89.333 C 39.062 88.832 38.876 88.453 38.503 88.197 C 38.248 88.03 38.121 87.828 38.121 87.593 L 38.121 86.944 C 38.121 86.718 38.248 86.605 38.503 86.605 L 41.829 86.605 C 42.045 86.605 42.153 86.708 42.153 86.914 L 42.153 87.591 C 42.153 87.817 42.03 88.018 41.785 88.194 C 41.402 88.459 41.211 88.837 41.211 89.327 L 41.211 109.12 C 41.211 109.434 41.068 109.591 40.783 109.591 L 40.134 109.591 C 39.839 109.591 39.633 109.434 39.515 109.12 L 33.411 93.079 L 33.411 106.75 C 33.411 107.26 33.599 107.643 33.976 107.898 C 34.227 108.065 34.352 108.261 34.352 108.487 L 34.352 109.149 C 34.352 109.375 34.226 109.487 33.972 109.487 L 30.685 109.487 C 30.471 109.487 30.363 109.384 30.363 109.178 L 30.363 108.487 C 30.363 108.271 30.49 108.075 30.746 107.898 C 31.119 107.633 31.305 107.251 31.305 106.75 L 31.305 89.328 C 31.305 88.828 31.118 88.45 30.746 88.195 C 30.491 88.028 30.363 87.827 30.363 87.592 L 30.363 86.945 C 30.363 86.719 30.49 86.606 30.744 86.606 L 33.852 86.606 C 34.077 86.606 34.228 86.633 34.307 86.688 C 34.386 86.743 34.463 86.872 34.541 87.079 L 39.062 98.993 Z"/>
    <path fill="#F6A406" stroke="#F6A406" stroke-width="0.3344" stroke-linecap="round" stroke-linejoin="round" stroke-miterlimit="22.9256" d="M 43.153 87.591 L 43.153 86.825 C 43.153 86.678 43.266 86.604 43.491 86.604 L 47.317 86.604 C 49.475 86.604 51.295 87.485 52.777 89.246 C 54.258 91.007 54.999 93.865 54.999 97.818 C 54.999 99.859 54.775 101.809 54.329 103.668 C 53.883 105.527 53.166 106.962 52.181 107.973 C 51.196 108.984 49.535 109.489 47.2 109.489 L 43.418 109.489 C 43.242 109.489 43.153 109.406 43.153 109.239 L 43.153 108.489 C 43.153 108.273 43.276 108.077 43.521 107.9 C 43.884 107.626 44.065 107.243 44.065 106.752 L 44.065 89.328 C 44.065 88.828 43.903 88.465 43.58 88.239 C 43.295 88.033 43.153 87.817 43.153 87.591 Z M 47.465 88.357 L 47.465 107.782 C 48.446 107.782 49.207 107.547 49.746 107.075 C 50.286 106.604 50.678 105.574 50.923 103.985 C 51.168 102.396 51.291 100.571 51.291 98.511 C 51.291 96.284 51.197 94.518 51.011 93.213 C 50.824 91.908 50.592 90.924 50.312 90.262 C 50.033 89.6 49.687 89.131 49.275 88.857 C 48.863 88.582 48.26 88.415 47.465 88.357 Z"/>
  </g>
</svg>