<?xml version="1.0" encoding="utf-8"?>
<!-- Generator: Adobe Illustrator 16.0.0, SVG Export Plug-In . SVG Version: 6.00 Build 0)  -->
<!DOCTYPE svg PUBLIC "-//W3C//DTD SVG 1.1//EN" "http://www.w3.org/Graphics/SVG/1.1/DTD/svg11.dtd">
<svg version="1.1" id="Layer_1" xmlns="http://www.w3.org/2000/svg" xmlns:xlink="http://www.w3.org/1999/xlink" x="0px" y="0px"
	 width="240px" height="259.367px" viewBox="0 0 240 259.367" enable-background="new 0 0 240 259.367" xml:space="preserve">
<g id="logo_2_">
	<title>LOGO MAGUY CITHARE_MULTIMÉDIA_220313_FORM-E-SENS(1)</title>
	<g>
		<g id="Calque_1_2_">
			<rect x="11.447" fill="#6A465B" width="188.354" height="188.354"/>
			<path fill="#FFFFFF" d="M54.742,60.395c-0.691-0.472-1.514-0.715-2.351-0.694c-0.687-0.019-1.368,0.129-1.985,0.434
				c-0.538,0.281-1.003,0.684-1.358,1.176c-0.366,0.504-0.634,1.073-0.79,1.677c-0.172,0.627-0.26,1.276-0.26,1.927
				c-0.004,0.708,0.083,1.415,0.26,2.1c0.15,0.621,0.418,1.206,0.79,1.725c0.358,0.491,0.827,0.891,1.368,1.166
				c0.62,0.303,1.304,0.452,1.995,0.433c0.518,0.013,1.033-0.083,1.513-0.279c0.434-0.175,0.824-0.441,1.146-0.78
				c0.327-0.341,0.583-0.745,0.751-1.186c0.186-0.478,0.296-0.981,0.328-1.493h1.725c-0.071,1.447-0.671,2.819-1.687,3.854
				c-1.078,0.95-2.487,1.438-3.921,1.358c-0.903,0.018-1.8-0.156-2.631-0.511c-0.714-0.334-1.343-0.824-1.84-1.436
				c-0.525-0.637-0.916-1.375-1.146-2.168c-0.256-0.859-0.383-1.753-0.375-2.65c-0.006-0.899,0.13-1.793,0.404-2.649
				c0.244-0.792,0.64-1.529,1.166-2.168c0.523-0.628,1.182-1.128,1.927-1.464c0.83-0.371,1.731-0.555,2.64-0.54
				c0.652-0.002,1.302,0.092,1.927,0.279c0.579,0.167,1.123,0.435,1.609,0.791c0.477,0.359,0.879,0.807,1.185,1.32
				c0.322,0.561,0.532,1.18,0.617,1.821h-1.725C55.879,61.616,55.419,60.883,54.742,60.395z"/>
			<path fill="#FFFFFF" d="M68.682,58.275v13.528H66.6V58.275H68.682z"/>
			<path fill="#FFFFFF" d="M75.966,59.316v-1.041h11.447v1.041h-5.203v12.487h-2.081V59.316H75.966z"/>
			<path fill="#FFFFFF" d="M96.778,58.275v5.203h7.285v-5.203h2.081v13.528h-2.081V65.56h-7.285v6.244h-2.081V58.275H96.778z"/>
			<path fill="#FFFFFF" d="M120.505,57.765l5.463,14.038h-2.082l-1.529-4.163h-5.911l-1.571,4.163h-1.863l5.453-13.996
				L120.505,57.765z M121.794,65.56l-2.33-6.525l0,0l-2.373,6.525H121.794z"/>
			<path fill="#FFFFFF" d="M139.514,58.275c1.096-0.064,2.177,0.278,3.036,0.961c0.73,0.649,1.133,1.593,1.092,2.57
				c0.019,0.76-0.174,1.509-0.557,2.165c-0.405,0.649-1.055,1.108-1.801,1.275l0,0c0.345,0.057,0.673,0.188,0.961,0.385
				c0.241,0.166,0.441,0.384,0.588,0.637c0.152,0.257,0.262,0.538,0.323,0.83c0.076,0.313,0.13,0.63,0.162,0.951
				c0,0.333,0.05,0.667,0.061,1.011c0.01,0.339,0.04,0.677,0.091,1.012c0.058,0.317,0.132,0.631,0.223,0.941
				c0.096,0.288,0.244,0.555,0.436,0.789h-1.195c-0.146-0.173-0.243-0.381-0.281-0.604c-0.047-0.286-0.076-0.574-0.086-0.863
				c0-0.324,0-0.669,0-1.079c-0.012-0.362-0.051-0.722-0.119-1.078c-0.049-0.341-0.117-0.68-0.204-1.014
				c-0.068-0.302-0.201-0.585-0.388-0.831c-0.182-0.242-0.418-0.438-0.691-0.572c-0.34-0.145-0.707-0.214-1.078-0.205h-4.804v6.244
				h-2.081V58.275H139.514z M140.718,64.419c0.393-0.063,0.77-0.202,1.109-0.411c0.318-0.203,0.579-0.486,0.754-0.821
				c0.484-1.036,0.352-2.255-0.344-3.162c-0.541-0.521-1.282-0.781-2.03-0.71h-4.926v5.203h4.138
				C139.855,64.52,140.289,64.486,140.718,64.419z"/>
			<path fill="#FFFFFF" d="M162.337,58.275v1.041h-7.283v4.163h6.243v2.081h-6.243v4.163h7.283v2.081h-9.365V58.275H162.337z"/>
			<path fill="#FFFFFF" d="M53.072,17.69v30.178h-1.041V18.731h0.427L39.825,47.869h-0.926L26.266,18.731h-0.25v29.138h-1.041V17.69
				h1.377l12.634,29.138h0.084L51.695,17.69H53.072z"/>
			<path fill="#FFFFFF" d="M63.273,47.869H61.68L73.89,17.69h1.054L86.86,47.869h-1.594l-3.748-9.365H67.062L63.273,47.869z
				 M74.512,18.731h-0.085l-7.454,18.732h14.845L74.512,18.731z"/>
			<path fill="#FFFFFF" d="M108.226,34.34h11.447v13.528h1.041l-1.041-7.284h-0.086c-0.75,2.495-2.334,4.657-4.488,6.124
				c-2.325,1.496-5.05,2.247-7.813,2.152c-2.152,0.043-4.288-0.391-6.252-1.271c-1.746-0.804-3.293-1.983-4.531-3.454
				c-1.238-1.508-2.167-3.245-2.733-5.112c-0.631-2.023-0.943-4.133-0.926-6.253c-0.018-2.146,0.316-4.28,0.99-6.317
				c0.611-1.877,1.575-3.619,2.841-5.134c1.245-1.456,2.791-2.623,4.531-3.422c1.909-0.865,3.985-1.295,6.081-1.259
				c1.619-0.015,3.229,0.232,4.768,0.732c1.4,0.48,2.701,1.209,3.842,2.152c1.102,0.894,2.022,1.99,2.712,3.229
				c0.735,1.338,1.227,2.795,1.453,4.305h-0.861c-0.237-1.372-0.714-2.69-1.41-3.896c-0.657-1.146-1.518-2.164-2.54-3.003
				c-1.054-0.848-2.254-1.497-3.541-1.915c-1.428-0.463-2.922-0.689-4.423-0.667c-1.985-0.037-3.954,0.375-5.758,1.205
				c-1.649,0.757-3.117,1.857-4.305,3.229c-1.178,1.429-2.066,3.074-2.615,4.843c-0.612,1.917-0.917,3.918-0.904,5.93
				c-0.012,2.008,0.278,4.007,0.861,5.93c0.524,1.783,1.399,3.444,2.572,4.886c1.176,1.384,2.646,2.487,4.305,3.229
				c1.877,0.84,3.917,1.252,5.973,1.206c1.638,0.012,3.263-0.288,4.789-0.883c1.447-0.561,2.773-1.394,3.907-2.454
				c1.116-1.06,2.002-2.338,2.604-3.756c0.645-1.491,0.971-3.1,0.958-4.724V34.34H108.226L108.226,34.34z"/>
			<path fill="#FFFFFF" d="M154.013,17.69v18.731c0,4.006-0.937,6.962-2.799,8.887c-1.863,1.926-4.568,2.873-8.128,2.873
				s-6.243-0.958-8.138-2.873c-1.895-1.914-2.789-4.88-2.789-8.887V17.69h1.041v18.731c0,3.594,0.801,6.32,2.404,8.18
				s4.098,2.789,7.481,2.789c3.374,0,5.87-0.927,7.471-2.789c1.601-1.863,2.415-4.589,2.415-8.18V17.69H154.013z"/>
			<path fill="#FFFFFF" d="M186.46,17.878l-11.635,17.233v12.758h-1.041V35.111l-12.227-17.42h1.04l11.396,16.598L185.44,17.93
				L186.46,17.878z"/>
			<g>
				<path fill="#7A797C" d="M200.072,72.022c0.26,0.531-0.615,0.405-0.75,0.312l-1.248,0.24c-0.75,0-1.041-0.677-1.645-0.968
					c-0.635-0.138-1.291-0.138-1.926,0c-0.26,0.687,0.447,2.019,0.209,2.716c-0.428,0.531-1.28,0.76-1.873,1.176
					c-1.873-0.583-3.195-1.967-5.412-2.019c-0.721-0.484-1.299-1.152-1.676-1.936c-2.275-0.612-4.494-1.423-6.628-2.425
					c-0.146-0.78-0.302-1.561-0.448-2.341c-0.145-0.781,0.739-0.573,0.553-1.239c-0.553-0.926-1.749-0.874-2.415-1.634
					c0.364-1.405,2.415-1.332,4.059-1.603c0.401-0.383,0.933-0.602,1.488-0.614c1.001,0.567,2.118,0.902,3.268,0.979
					c0.4,0.399,0.848,0.748,1.332,1.04c1.332,0,2.258,0.677,3.684,0.583c0.822,0.5,1.717,0.916,2.55,1.436
					c0.537,0.773,1.25,1.408,2.081,1.853c0.167,0.416,0.51,0.583,0.677,1.041c1.051,0.689,1.986,1.543,2.768,2.528
					C199.031,71.689,199.853,71.418,200.072,72.022z"/>
				<path fill="#7A797C" d="M63.354,90.233c-0.011,0.888,0.616,1.655,1.488,1.821c0.479-0.094,0.542-0.458,0.843-0.656
					c0.177-0.937-1.041-0.937-0.739-1.311c1.301-0.26,1.561,1.041,2.518,1.28c1.041-0.094,1.707-0.552,2.487-0.479
					c0.281,0.313,0.729,0.385,0.718,1.145c0.781,0,0.458-0.76,1.124-0.864c0.884,0,1.259,0.666,1.957,0.916
					c0.853,0.063,1.53,0.406,2.362,0.51c1.041,0.822,2.196,1.55,3.226,2.435c0.468-0.073,0.656,0.239,0.905,0.468
					c0.417-0.073,0.875-0.229,1.114,0c0.194,1.117,0.737,2.144,1.55,2.935c0.634,0.543,1.375,0.947,2.175,1.186
					c0.843,1.238,2.196,1.696,3.382,2.415c0,0.905-0.75,1.301-0.5,2.362c0.094,0.198,0.322,0.198,0.406,0.406
					c1.467-0.094,1.436-1.197,2.248-1.738c0.562-0.157,1.394-0.135,1.675-0.49c-0.104-1.04-1.041-0.874-1.426-1.498
					c0.114-0.781,0.708-1.238,0.916-1.956c0.437-0.115,0.593-0.417,1.041-0.521c0.354-0.437,0.177-1.238,0.468-1.717
					c0.635-0.479,2.081-0.385,2.747-0.864c0.666-0.479,0.708-1.509,1.187-2.174c1.041-0.718,3.122-0.687,4.089-1.447
					c0-0.791-0.864-1.134-0.52-1.842c0.791-0.219,0.978,0.437,1.686,0.322c1.746-0.804,3.62-1.29,5.536-1.436
					c1.516-0.658,3.123-1.083,4.766-1.259c0.926,0.448,1.884,0.822,2.831,1.228l2.175-0.427c0.885,0.188,1.752,0.453,2.591,0.792
					c0.206,0.514,0.464,1.005,0.77,1.467c0.801,0.812,2.082,0.926,3.174,1.322c1.035,1.042,2.005,2.147,2.903,3.309
					c1.368,0.409,2.71,0.903,4.017,1.478c0.176,0.657,0.517,1.259,0.988,1.749c0.855,0.028,1.711-0.084,2.529-0.333
					c0.458-0.094,0.447-0.51,0.843-0.646c0.677-0.447,0.542-1.446,1.041-1.998c1.007-0.068,2.009-0.207,2.997-0.416
					c0.624-0.208,0.396-1.041,1.041-1.186c0.645-0.146,0.915,0,1.436-0.115c0.521-0.114,0.582-0.957,1.217-1.207
					c1.172-0.031,2.329-0.26,3.424-0.676c0.625,0,1.041,0.271,1.687,0.322c0.583-0.156,0.655-0.645,1.124-0.875
					c0.807-0.08,1.585-0.339,2.279-0.759c1.11,0.297,2.281,0.297,3.392,0c0.666-0.052,1.041,0.27,1.676,0.322
					c0.978-0.25,1.915-0.437,2.3,0.187c0.416,1.041-0.563,1.238-0.563,2.082c0.303,0.964,0.498,1.959,0.583,2.966
					c0.27,0.626,0.95,0.968,1.613,0.812c0.593-0.739-0.333-1.821-0.646-2.456c-0.004-0.91-0.18-1.811-0.52-2.654
					c1.998-1.041,3.121,0.718,4.568,1.041c0.499-0.125,0.623-0.489,1.195-0.562c1.852,0.603,3.514,1.678,4.818,3.122
					c0.117,0.417,0.145,0.853,0.084,1.28c0.749,1.041,2.019,1.426,3.892,0.854c0.323,0.905-0.136,1.27,0.083,2.082
					c0.219,0.812,1.416,0.583,2.082,0.874c0.946,1.353,2.081,2.393,2.758,4.162c-0.146,0.5-0.604,0.781-0.906,1.155
					c-0.905,0.073-1.196-0.78-2.081-0.728c-0.957,0.25-0.28,1.748,0,2.424c0.244,0.774,0.656,1.485,1.207,2.081
					c0.864,0,1.29-0.53,1.874-0.364c-0.303,0.846-0.402,1.751-0.292,2.643c-0.546,0.649-0.683,1.549-0.354,2.331
					c0.553,0.218,1.26-0.542,1.904-0.208c0.284,0.397,0.254,0.938-0.072,1.301c0.072,0.5,0.521,0.448,0.531,1.041
					c-0.938,0-2.02,0.125-2.436,0.801c0.219,1.217,0.863,1.81,0.957,3.215c-0.229,0.656-1.04,0.958-1.321,1.551
					c0.052,0.801,0.489,1.04,0.53,1.842c-0.103,0.658-0.307,1.297-0.604,1.894c0.406,1.499-0.488,2.081-0.291,3.455
					c0.416,0.646,1.779-0.104,2.206,0.542c0.458,1.529-1.978,1.103-1.779,2.455c0,1.113,0.78,1.113,1.04,1.904
					c0,1.041-0.635,1.551-1.196,2.164c0.015,0.531-0.104,1.057-0.343,1.531c-0.374,0.367-0.807,0.67-1.28,0.895
					c0.155,1.873,0.416,3.798-1.238,4.453c0.02,0.695-0.001,1.39-0.063,2.082c-0.803,0.756-1.567,1.551-2.29,2.383
					c0.156,1.551-0.53,2.529,0,4.36c-0.666,1.124-2.83,1.249-3.027,2.695c0,0.802,0.479,1.04,0.52,1.842
					c-0.291,0.386-0.499,0.833-1.092,1.041c-0.283,0.677-0.654,1.313-1.104,1.894c-0.018,0.603-0.183,1.191-0.479,1.717
					c-1.041,0.197-2.082,1.354-3.122,0.76c-0.177-1.415,1.187-2.248,0.239-3.767c0.416-0.288,0.785-0.64,1.093-1.041
					c-0.333-1.04,0.427-1.437,0.354-2.331c-0.803,0.229-0.896,0.937-1.354,1.395s-0.75,1.041-1.52,1.27
					c-0.396,0.863-0.083,2.195-1.665,2.269c-0.104-0.312-0.479-0.229-0.593-0.541c-0.197-1.04,0.968-1.238,1.603-1.759l-0.25-1.249
					c0.608-0.653,0.907-1.536,0.822-2.425c0.639-0.589,1.157-1.295,1.53-2.08c1.32-0.563,1.414-1.947,2.57-2.613l-0.313-1.561
					c0.457-0.416,1.228-0.614,1.373-1.238c-0.188-0.854-1.04-0.76-1.134-1.717c-0.177-1.238,0.812-1.696,0.905-2.768
					c-1.145-1.895,0.083-3.123,0.551-4.631c0.313-1.041,0.709-2.082-0.113-3.05c-1.363,0.489-2.332,0.573-2.862-0.583
					c-0.208-0.854,0.479-1.113,0.447-1.861c-0.083-0.418-0.124-0.896-0.374-1.041c-0.209-0.553-0.729-0.667-1.145-0.906
					c-0.51-0.052-0.646-0.656-1.25-0.562c-0.604,0.093-0.312,0.593-0.654,0.77c-1.863,0.426-2.529-0.926-3.455-1.915
					c-1.51-0.094-2.383-1.135-4.069-0.978c-0.458-0.396-1.113-0.5-1.488-1.041c-0.562,0.219-0.728-0.135-1.28,0.083
					c-0.428-0.38-0.83-0.786-1.207-1.217c-0.909-0.222-1.854-0.258-2.777-0.104c-1.033-0.289-2.031-0.691-2.977-1.196
					c-0.975-0.099-1.956-0.124-2.936-0.073c-0.855-0.051-1.702-0.212-2.518-0.479c-0.322-0.385-0.812-0.53-1.041-1.092
					c-3.246,0.874-5.15-0.26-8.064,0.125c-1.684,0.761-3.178,1.888-4.371,3.298c0.1,1.743-0.353,3.471-1.29,4.943
					c-0.915,0-1.894-0.209-2.31,0.613c0,0.822,0.53,0.822,0.624,1.499c0.235,1.222,0.26,2.475,0.073,3.704
					c-0.48,0.635-1.014,1.226-1.593,1.77c0.583,1.041,0.188,2.186-0.915,1.957c-0.615-0.615,0.666-0.947,0.291-1.832
					c-0.316-0.16-0.701-0.088-0.937,0.178c-0.396,0.509,0,0.926,0.146,1.592c-0.458,0.541-0.437,1.415-1.041,1.83
					c-0.843,0.115-0.468-1.581-1.27-1.529c-0.801,0.053-0.812,0.448-0.968,0.833c0.188,1.04,1.124,0.885,1.457,1.665
					c0.083,1.27-0.729,1.945-0.666,3.195c-0.895,0.895-1.561,1.936-2.539,2.768c-0.541,1.529-1.769,2.602-2.258,4.162
					c-1.041,0.864-1.384,2.133-2.31,3.049c0.167,1.544-0.539,3.053-1.832,3.914c-0.481,1.229-0.714,2.541-0.687,3.859
					c-0.232,0.822-0.716,1.55-1.384,2.082c-0.552,1.176-1.322,2.185-1.946,3.299c0.094,0.468,0.188,0.936,0.271,1.404
					c-0.335,0.562-0.794,1.039-1.343,1.395c-0.968,0.344-1.758-0.083-2.362,0.302c-0.604,0.386-0.219,1.394-0.604,1.904
					c-0.817,0.028-1.629-0.146-2.362-0.511c-0.344-1.175-1.343-2.954-0.614-3.933c0.666-0.114,0.905,0.417,1.405,0.542
					c0.37-0.217,0.648-0.561,0.781-0.969c0-0.572-0.323-0.718-0.531-1.041c-0.219-0.738-1.416,0-1.613-0.811
					c0-0.988,1.166-0.073,1.655-0.646c0.562-0.207,0.822-0.623,1.291-0.904c0.187-0.662,0.323-1.336,0.406-2.02
					c-0.364-0.801-1.332-0.707-1.863-1.248c-0.26-0.614-0.864-1.113-0.676-1.811c0.604-0.666,0.864,0.645,1.675,0.313
					c0.812-0.334,0.198-1.395,0.417-2.02c0.614-0.406,1.79-0.416,2.435-0.801c0-0.646-0.833-0.104-1.041-0.438
					c-0.551,0.208-0.666-0.219-1.145-0.104c-0.645-0.249-1.571-0.094-2.081-0.562c-0.498-1.077-0.374-2.339,0.322-3.299
					c1.312,0.135,0.292,2.612,1.551,2.935c0.884-0.125,0.864-0.864,1.374-1.249c0.468-0.146,0.812,0.219,1.041-0.208
					c0.541-0.323,0.437-1.041,0.479-1.717c-0.146-1.041-0.947-1.134-1.041-2.206c0.757-0.186,1.375-0.73,1.655-1.457
					c0-0.625-0.427-0.708-0.427-1.374c0.25-0.333,0.718-0.51,0.968-0.843c0.417-1.113,1.457-1.82,1.291-3.319
					c-0.198-1.04-1.187-0.916-1.488-1.821c-0.218-0.869-0.043-1.789,0.479-2.519c0.833,0,0.728,1.332,1.675,1.135
					c1.217-0.354,0.593-1.946,1.259-2.675c0.78-0.332,1.811-0.499,2.081-1.207c-0.416-1.145-2.269-0.968-2.081-2.352
					c0.562-0.219,0.728,0.146,1.28-0.084c0.552-0.229,0.416-0.895,0.531-1.404c0.535-0.642,0.941-1.38,1.197-2.175
					c0.062-0.479,0.019-0.965-0.125-1.425c0.448-1.259,1.241-2.367,2.29-3.195c0.218-0.896,0.458-1.77,0.604-2.716
					c-0.562-0.562-1.842-0.062-2.643-0.292c-0.802-0.229-1.946,0.083-2.644-0.291c-1.384,0.301-2.394,0.063-3.809,0.427
					c-0.519-0.055-1.029-0.174-1.519-0.354c-0.625,0.125-0.875,0.5-1.499,0.625c-1.714-0.051-3.417,0.283-4.985,0.978
					c-2.081-0.406-3.944,0.843-5.526,1.561c-0.572,0.375-0.489,1.207-0.968,1.644c-0.843,0.239-1.113,0-1.717,0.344
					c-0.219,0.385,0.125,1.155,0.187,1.748c-0.365,0.751-0.591,1.562-0.666,2.394c-0.649,0.822-1.344,1.607-2.081,2.352
					c0.219,1.041,0.437,2.186,0.645,3.279c-0.562,1.789-2.716,2.496-3.194,4.338c-0.125,0.791,0.281,0.938,0.489,1.687
					c-0.208,0.624-1.041,0.833-1.342,1.395c0.271,0.76-0.052,1.145,0.208,1.904c-0.281,0.896-1.332,1.259-0.937,2.612
					c-0.989,1.062-1.581,2.433-1.675,3.881c0.083,0.749,0.697,0.719,0.78,1.467c0,1.041-0.739,1.488-1.384,2.082
					c-0.27,0.814-0.734,1.55-1.353,2.144l-1.093,0.219c-0.437,0.655-0.551,1.519-1.041,2.144c-0.51,0-0.437-0.843-0.843-0.968
					c-0.073-0.624-0.76-0.354-0.833-0.968c0.479-0.406,1.103-0.697,1.561-1.113c0.427-1.218-0.427-2.664-1.041-3.527
					c-0.354-0.25-0.75,0.072-1.041,0.219c-0.52-0.303-0.562-1.313-1.363-1.197c-1.78,0.354-0.448,2.498,0.395,2.841
					c0.292,0.738-0.541,0.718-0.375,1.362c0.167,0.646,0.656,0.625,0.739,1.313c-0.164,0.339-0.374,0.654-0.624,0.936
					c-0.822,0.334-1.104-0.113-1.78,0c-0.833,0.438-0.947,1.343-0.635,2.551c-0.662,1.131-1.582,2.09-2.685,2.799
					c-0.156,0.426,0.198,1.217,0,1.613c0.167,0.395-0.281,0.604-0.468,0.904c-0.375,0.594-0.583,1.208-1.655,1.457
					c-0.687,0.25-0.78,1.499-1.53,1.27c-0.177-0.822,0.417-1.436-0.083-2.081c-1.114-0.271-1.134,1.04-2.56,0.988
					c-0.646,0.427-0.417,1.446-1.655,1.457c-0.749-0.562-0.655-2.372-1.041-3.517c0.516-0.771,0.949-1.594,1.291-2.457
					c-0.292-1.186-0.448-2.289,0.073-2.924c0.427-0.313,0.572,0,1.249-0.25c0.302-0.76-0.396-1.487-0.458-2.33
					c0.083-1.041,0.833-1.613,0.937-2.612c-0.063-0.635-0.437-0.812-0.458-1.53c0.004-0.65,0.157-1.291,0.448-1.873
					c0.05-0.715,0.657-1.262,1.374-1.238c0.52,0.104,0.572,0.895,1.041,1.094c0.937-0.677,1.041-1.946,2.081-2.52
					c0.177-0.728,0.583-1.311,0.718-2.08c0-0.761-0.385-1.041-0.489-1.676c-0.052-0.802,0.562-1.155,0.781-1.779
					c-0.188-0.953-0.213-1.932-0.073-2.894c-0.135-0.957-1.415-1.394-0.77-2.278c0.926-0.303,1.238,0.312,1.613,0.821
					c0.528,0.228,0.99,0.587,1.342,1.041c0.188,0.749-0.146,1.53,0.521,1.842c2.841-0.624-0.188-4.548,1.041-6.036
					c-0.375-0.457-0.979-0.572-1.343-1.041c-0.25-1.217-1.103-1.57-1.353-2.809c0.739-0.104,1.041,0.416,1.832,0.291
					c0.531-0.635,0-2.019,0.822-2.424c1.124-0.406,1.29,0.613,2.206,0.541c1.717-0.063,1.738-3.893-0.333-3.341
					c-0.625,0.208,0.229,1.416-0.125,1.811c-0.656,0.739-1.54,0.354-2.373,0.302c-0.77,0.114-0.885,0.666-1.624,0.801
					s-1.041-0.405-1.832-0.28c-2.445,0.78-3.788,2.32-6.931,2.644c-0.759,0.354-0.926,1.092-1.654,1.457
					c-1.041,0.343-1.405-0.198-2.394,0.145c-1.374,0.75-1.821,2.082-3.902,2.384c-0.666,0.177-0.864-0.323-1.624,0
					c-1.113,0.416-1.374,1.415-2.185,2.081l-1.874,0.363c-0.749,0.115-0.78-0.842-1.707-0.467c-0.853,0.529,0.156,0.853,0.302,1.561
					c-0.749,0.885-2.612,1.041-3.527,1.82c-0.718,0.188-1.228-0.729-1.8-0.135c-0.677,0.438,0.437,0.551,0.395,1.217
					c-0.306,0.836-1.109,1.383-1.998,1.363c-0.406,0.49-0.417,1.249-0.968,1.645c-0.364,0.354-1.332,0.281-1.655,0.646
					c-0.538,0.422-0.984,0.95-1.311,1.55c-0.522,0.34-1.007,0.734-1.447,1.177c-0.5,0-0.541,0.271-0.905,0.333
					c-0.676,0.26-0.978,0-1.592,0.156c-0.614,0.156-0.468,1.04-1.405,1.04c-0.114,0.958-0.853,1.499-0.78,2.581
					c-0.616,0.574-1.142,1.236-1.561,1.967l-1.561,0.302c-0.968,0.458-1.197,1.259-2.529,1.146c-0.58,0.33-1.097,0.76-1.529,1.27
					c-0.916,0.113-1.52,0.416-1.749,1.039c0,1.333,1.093,0.927,1.582,1.469c0.156,0.738-0.396,1.04-0.687,1.436
					c-0.197,0.492-0.43,0.969-0.697,1.426c-0.729,0.729-1.041,1.77-1.779,2.455c-0.656,0.115-0.895-0.405-1.395-0.53
					c-0.687,0-1.405,0.073-2.082,0.083c-0.354,0.115-0.25,0.542-0.5,0.75c0.037,0.654,0.273,1.283,0.677,1.8
					c0.017,0.755,0.216,1.493,0.583,2.154c0,1.041-0.271,1.8-0.26,2.81c-0.447,0.593-1.155,1.041-1.436,1.728
					c0.458,1.218-0.083,2.466-1.041,2.31c-0.51,0.084-0.468-0.645-0.676-1.04c-0.36-0.13-0.682-0.349-0.937-0.636
					c-0.902,0.191-1.842-0.043-2.55-0.634c-0.209-0.546-0.147-1.16,0.167-1.655c-0.146-0.52-1.041,0.084-1.041-0.582
					c0-1.229,2.331-0.863,3.455-1.332c0.666,0.104,2.227,0.302,2.081-0.738c-0.406-0.813-1.259-0.281-2.081-0.063
					c-1.187-0.359-2.02-1.426-2.082-2.664c0.521-1.041,2.311-0.697,3.122-0.459c0.583-0.229,1.249-0.416,1.041-1.176
					c-0.541-0.363-1.27,0.313-1.873,0.365c-1.478-2.893,0.77-4.443,3.205-5.203c0.791-0.303,0.729,0.645,1.52,0.344
					c0.884-0.125,1.092-0.709,1.571-1.114c0.569-0.214,0.97-0.728,1.041-1.332c-0.229-0.739-0.874-0.864-1.374-1.196
					c-0.336,0.712-0.567,1.469-0.687,2.248c-0.52,0.313-1.067,0.582-1.634,0.801c-0.427-1.748,0.156-3.496,1.957-3.289
					c0.218-0.395-0.135-1.165,0.187-1.498c0.485-0.467,1.111-0.76,1.78-0.832c0.479-0.178,0.437-0.708,0.968-0.844
					c1.217-0.197,1.759,0.614,2.986,0.386c-0.125-1.624-1.769-0.979-2.195-2.154c1.821-1.145,3.122,0.208,4.818-0.136
					c0.65-0.362,1.119-0.982,1.291-1.706c-0.552-1.041-2.727,0.291-3.497-0.448c-0.115-1.581,0.729-2.497,2.352-2.893
					c1.114,0,1.821,0.521,3.122,0.197c0.161-0.608-0.027-1.257-0.489-1.686c0-0.863,0.843-1.228,1.259-1.862
					c0.718-0.125,0.729,0.78,1.551,0.511c0.822-0.271,0.5-1.041,1.041-1.332c0.601-0.129,1.16-0.408,1.624-0.813
					c-0.198-0.77-1.124-0.459-1.239-1.373c0.219-0.521,1.426-0.646,1.998-0.553c0.739-0.718,1.041-1.748,2.341-2.08
					c0.454-0.417,0.809-0.929,1.041-1.5c0.572-0.291,0.749-0.842,1.217-1.206c1.436-0.386,2.487-0.208,3.934-0.604
					c0.78-0.332,0.646-1.279,1.28-1.717c0.68-0.174,1.38-0.25,2.082-0.229c0.76-0.313,0.479-1.311,1.124-1.686
					c0.633-0.145,1.292-0.145,1.925,0c1.639-1.088,3.598-1.587,5.557-1.415c0.468-0.177,0.063-0.947,0.218-1.332
					c0.822-0.281,1.259,0,2.082-0.25s0.812-1.166,1.655-1.447c1.134-0.281,1.862,0,3.018-0.271c0.76-0.312,0.801-1.092,1.322-1.55
					c1.363-0.083,2.404-0.916,3.58-0.708c0.622-0.35,1.19-0.788,1.686-1.301c0.937-0.049,1.833-0.396,2.56-0.988
					c1.635-0.382,3.329-0.438,4.985-0.167c0.316-0.166,0.601-0.384,0.843-0.646c-0.094-1.041-1.228-1.196-0.926-2.248
					c0.905-0.593,1.645,0.396,2.893-0.083c0.316-0.166,0.601-0.384,0.843-0.646c0.156-0.353,0-0.925,0.073-1.311
					c0.355-0.563,0.485-1.239,0.364-1.894c0.343-0.448,0.822-0.812,0.853-1.467c-0.375-0.853-1.238-1.041-1.27-2.341
					c0.364-0.427,1.634-0.25,1.779-0.833c-0.551-1.395-0.645-3.465-1.509-4.391c0.604-2.633-1.467-5.1-3.122-6.182
					c-0.208-2.082-1.436-2.706-2.601-3.372c-0.791,0.531-1.343,0.156-2.082,0.083c-0.968,0.25-1.332,0.916-2.373,1.114
					c-0.489-0.344-0.739-1.041-1.113-1.562c-0.385-0.301-0.677-0.739-1.27-0.718c-0.385-0.302-0.687-0.739-1.28-0.729
					c-1.166,0.25-1.405,1.124-2.466,1.457c-0.958,0.978-1.925,1.946-2.997,2.852c-2.727,0.739-3.122,3.018-5.203,4.246
					c-0.375,0.479-0.812,0.905-1.186,1.363c-0.613,0.094-1.181,0.378-1.624,0.812c-0.521,0.229-0.645-0.115-1.124,0.052
					c-0.479,0.167-0.167,1.239-0.479,1.717c-0.604,0.603-1.738,0-2.3,0.614c-0.302,0.541,0.468,0.78,0.458,1.519
					c-0.481,1.14-1.312,2.099-2.373,2.737c-0.458,0.323,0,1.238-1.041,1.176c-0.364-0.967,0.958-0.801,0.822-1.613
					c-0.124-0.313-0.292-0.608-0.5-0.874c-1.27,0.406-1.655,1.416-2.081,2.352c0.093,0.521-0.115,0.833,0.114,1.436
					c-0.195,0.098-0.288,0.324-0.218,0.531c-2.065,2.038-3.847,4.345-5.297,6.858c-0.417,0.167-0.583,0.51-1.041,0.687
					c-0.624,0.385-0.26,1.446-1.301,1.551c-0.291,0-0.135-0.739-0.468-0.718c-0.271-0.958,0.635-1.104,0.593-1.904
					c0-1.041-0.593-1.25-0.739-2.082c0.104-0.614,1.228-0.531,0.854-1.467c-0.916-0.469-0.718,0.967-1.592,0.967
					c-0.531-0.156-0.791-0.708-1.436-0.697c-0.895,0.125-1.114,0.697-1.936,0.864c0.312,1.291,1.613,1.103,1.925,2.383
					c0.062,0.718-0.521,1.041-1.405,1.041c-0.968,0.427-0.864,1.582-2.081,1.852c-0.656-0.593,0.593-1.707-0.427-2.175
					c-1.134,0.364-1.207,1.446-1.103,2.644c-0.208,0.312-0.895,0.301-1.374,0.426c-0.854,0.781-0.926,2.082-2.081,2.674l0.312,1.551
					c-0.222,0.371-0.36,0.786-0.406,1.218c-0.104,0.77,0.51,1.936-0.572,2.081c-0.038-0.902-0.213-1.794-0.521-2.644
					c-0.073-0.375,0.177-0.51,0-0.968c0.322-0.416,0.375-1.04,0.697-1.425c-0.177-1.592,0.063-3.202,0.697-4.673
					c0-0.843,0.864-1.134,0.916-1.957c0.437-0.562,0.479-1.395,1.103-1.842c0.005-1.525,0.692-2.969,1.873-3.934
					c0.444-1.538,1.148-2.988,2.082-4.288c0.645,0,0.916,0.521,1.675,0.323s0.687-0.895,0.479-1.717
					c1.205-0.361,2.208-1.199,2.779-2.32c-0.086-0.528-0.24-1.042-0.458-1.53c0.292-0.572,0.167-1.425,0.593-1.894
					c-0.083-0.604,0.5-1.467,0.874-1.311c0.78,0,0.614,1.384,1.53,1.166c0.916-0.219,0.562-1.155,0.593-1.904
					c1.249-2.082,3.122-3.736,4.163-5.995c0.664-0.421,1.275-0.921,1.821-1.488c1.041-0.083,1.613-0.531,2.612-0.666
					c0.479,0.604,0.104,1.28,0.427,2.175c0.219,0.292,0.666,0.219,1.155,0.094c0.666-0.406,0.073-1.665,0.531-2.206
					c-0.073-0.625-0.76-0.344-0.833-0.967c-0.073-1.042,0.676-1.53,1.041-2.3c1.041-0.271,1.571,0.218,2.581,0
					c0.93-0.385,1.747-1.001,2.373-1.79c0.677-0.125,1.041,0.177,1.78,0c0.281,0,0.292-0.25,0.593-0.281
					c0.957-0.52,1.145-1.571,2.747-1.665C60.981,90.357,62.344,89.994,63.354,90.233z M53.582,95.686
					c-0.479-0.177-1.291,0.573-1.041,1.342c0.85,0.226,1.751,0.16,2.56-0.187C54.737,96.342,54.321,95.759,53.582,95.686z
					 M79.088,98.183c0.259,0.11,0.552,0.11,0.812,0c0.094-0.5,0-0.604-0.468-0.729c0,0.313-0.583,0.313-0.343,0.75V98.183z
					 M50.575,104.386c-0.51,0-0.646-0.666-1.249-0.562c-1.238,0.25-1.363,1.249-1.311,2.362c0.822-0.083,0.864-0.687,1.8-0.687
					c0.625,0,0.812,0.687,1.686,0.323c0-0.313,0.26-0.458,0.156-0.843C51.553,104.594,50.887,104.687,50.575,104.386z
					 M121.525,92.616l0.063,0.312l0.312-0.063c0.136-0.26,0.094-0.416-0.249-0.437c0.031,0.094,0.041,0.188-0.104,0.188H121.525z
					 M83.875,102.554c0.75-0.5-0.073-2.644-1.113-2.373C82.771,100.889,82.72,102.97,83.875,102.554z M109.266,99.432
					c-1.139,1.14-2.514,2.017-4.027,2.57c-0.343,1.415-1.592,2.019-2.882,2.664c-0.593,2.581-3.018,3.923-5.058,5.525
					c-0.125,0.417,0,1.041-0.229,1.342c-0.635,0.198-0.801,0.719-1.436,0.927c-1.166,1.925-2.57,3.684-3.018,6.098
					c-0.375,0.271-0.905,0.469-0.937,0.989c0.143,0.524,0.612,0.892,1.155,0.905c0.791-0.187,0.978-0.78,1.748-0.989
					c1.501,0.193,3.022,0.168,4.517-0.073c0.729-0.281,0.874-0.947,1.707-1.145c1.164,0.241,2.312,0.557,3.434,0.947
					c0.625-0.083,0.708-0.52,1.342-0.593s0.843,0.489,1.52,0.354c0.655-0.417,0.666-1.27,1.467-1.582
					c2.081-0.739,4.35-0.385,6.764-1.041c1.041,0.156,1.592,0.979,2.768,0.916c0.759-0.437,1.904-0.614,2.716-1.041
					c0.238-0.772,0.519-1.529,0.843-2.269c0-0.646-0.53-0.552-0.551-1.197c0.167-0.646,1.041-0.843,1.155-1.52
					c-0.133-1.384-0.133-2.778,0-4.163c0.458-0.104,1.041-0.114,1.229-0.395c0.197-0.812,0.707-1.416,0.468-2.519
					c-0.312-0.271-0.552-0.645-1.04-0.604c-0.635-0.292-0.938,0.583-1.654,0.655c-1.395-0.916,0.645-3.767-1.416-3.934
					c-0.968,0.438-0.375,1.915-0.76,2.737c-0.523,0.292-1.182,0.144-1.53-0.343c-0.394-1.113-0.978-2.148-1.727-3.06
					c-0.085-0.647-0.317-1.266-0.677-1.811c-2.175-0.78-3.663,1.312-5.89,1.655V99.432z M45.975,113.866
					c0.593-0.073,0.968-1.208,0.229-1.342C45.855,112.879,45.765,113.414,45.975,113.866z M89.078,106.716
					c0.582,0.166,1.2-0.088,1.499-0.614C90.389,104.822,88.349,105.249,89.078,106.716z M38.503,118.039c0,0.104,0,0.208,0,0.312
					s0.187,0,0.187,0.125l0.313-0.063c0-0.093,0-0.188,0.125-0.188c0.125,0,0-0.198-0.062-0.312c-0.063-0.114-0.188,0-0.188-0.114
					l-0.312,0.052C38.639,117.955,38.639,118.049,38.503,118.039z M126.125,102.429c0.574,0.028,1.063-0.414,1.091-0.988
					c0.001-0.018,0.001-0.035,0.001-0.053c-0.49-0.124-0.988,0.174-1.111,0.664c-0.027,0.106-0.035,0.216-0.022,0.325
					L126.125,102.429z M157.738,101.087c-1.561-0.281-2.934-0.854-4.942-0.489c-0.697,0.26-1.04,0.749-1.748,1.041
					c-0.534-0.126-1.09-0.126-1.624,0c-0.437,0.26-0.624,0.707-1.04,1.04c-0.739,0.49-1.8,0.719-2.685,1.166
					c-0.271,0.756-0.761,1.415-1.405,1.894c-0.646,0.427-1.915,0.427-2.591,0.832c-0.322,0.458-0.219,1.208-0.656,1.582
					c-0.346,0.302-0.74,0.545-1.165,0.718c-0.343,1.09-0.993,2.059-1.873,2.789c-1.228,0.437-1.634,1.426-2.872,1.863
					c-0.198,0.866-0.293,1.754-0.281,2.643c0.304,0.595,0.733,1.117,1.26,1.53c0.535,0.059,1.076,0.009,1.592-0.146
					c0.879,0.36,1.798,0.615,2.736,0.759l1.562-0.313c1.571,0.354,2.81,1.187,4.475,1.395s2.769,1.249,4.36,1.571
					c0.875-0.267,1.799-0.337,2.705-0.208c0.918,0.956,1.902,1.846,2.945,2.664c1.132-0.109,2.271-0.109,3.402,0
					c0.958,1.103,2.082,1.925,3.123,2.935c0.469,0.547,1,1.04,1.581,1.467c0.386,0.77,1.301,0.739,1.737,1.446
					c1.041,1.916,1.957,3.933,4.309,3.851c1.041-0.417,1.238-1.332,1.873-1.988c-0.354-2.081,0.322-3.403,0.646-4.984
					c-0.165-0.842-0.434-1.66-0.802-2.435c-0.094-0.916,1.27-0.853,0.916-1.957c-0.364-0.354-1.229-0.198-1.217,0.396
					c-0.334,0.417-1.291,0.437-1.344-0.219c-0.051-0.656,0.781-0.739,1.447-0.926c0.354-1.249,1.395-2.029,0.854-3.892
					c-0.791-0.572-2.154-1.124-1.957-2.529c0-0.708,1.041-0.749,1.187-1.363c-1.223-0.665-2.011-1.918-2.081-3.309
					c-0.396-0.614-1.041-0.864-1.301-1.686c0-0.937,1.218-1.041,1.041-2.144c-0.24-0.656-0.791-0.843-1.041-1.405
					c-0.5-0.271-0.563-1.187-1.342-1.041c-0.781,0.146-0.625,0.833-1.437,0.926c-0.739-0.375-1.187-1.187-2.081-1.384
					c-1.479,0.447-1.936,1.582-3.684,1.852c0-0.114-0.156-0.156-0.334-0.093c-0.873-1.312-1.186-3.174-2.289-3.903L157.738,101.087z
					 M161.193,103.813c0.875-0.083,1.041-0.676,0.844-1.468c-0.833-1.071-1.738,0.625-0.885,1.416L161.193,103.813z
					 M171.787,102.543c0.719-0.135,1.218-0.437,1.041-1.176c-0.843-1.332-2.581,0.5-1.082,1.124L171.787,102.543z M70.045,130.183
					c0.453,0.52,1.242,0.574,1.762,0.12c0.06-0.052,0.114-0.109,0.163-0.172c-0.177-0.853-0.583-1.395-1.394-1.342
					C70.347,129.184,69.847,129.465,70.045,130.183z M172.213,109.849c0.281-0.125,0.655-0.187,0.53-0.593
					C172.328,109.297,172.078,109.443,172.213,109.849z M86.091,129.475c0.167-0.24,0.083-0.812-0.313-0.75
					C85.384,128.788,85.467,129.683,86.091,129.475z M52.895,135.968c0.135,0.552,0.635,0.53,1.218,0.416
					C54.227,135.479,53.239,135.563,52.895,135.968z M121.753,132.846c-0.188-0.654-0.166-1.634-0.551-1.998
					c-1.281,0.063-0.5,2.426,0.551,1.967V132.846z M81.169,142.368l1.041-0.207c0.179-0.354,0.038-0.786-0.316-0.965
					c-0.115-0.059-0.242-0.084-0.37-0.076c-0.264,0.348-0.391,0.781-0.354,1.218V142.368z M78.047,144.293
					c-0.328,0.367-0.417,0.889-0.229,1.343c0.697-0.125,0.385-0.916,0.916-1.155s0.864-0.5,1.311-0.738
					c0-0.49,0.489-0.666,0.219-1.344c-0.958,0.281-1.291-0.363-2.279,0c-0.093,0.62-0.072,1.252,0.063,1.863V144.293z
					 M113.428,137.55c0.5-0.114,0.614-0.489,0.448-1.04c-0.25,0-0.437-0.146-0.687-0.188c-0.468,0.219-0.135,0.988,0.239,1.196
					V137.55z M28.097,153.721c-0.26-0.109-0.552-0.109-0.812,0c-0.146,0.479,0.895,0.24,0.812-0.031V153.721z M121.337,136.958
					c0.562-0.115,0.594-0.594,0.406-1.218c-0.374,0-0.677,0.303-0.677,0.677C121.067,136.629,121.167,136.83,121.337,136.958z
					 M76.694,150.079c-0.427,0.344-0.874,0.667-0.874,1.301c0.354,1.188,0.146,1.988,0.447,3.123
					c0.812-0.188,0.812-0.906,1.041-1.499c0.481-0.403,0.775-0.986,0.812-1.612c0-0.594-0.396-0.614-0.396-1.218
					c0.187-0.593,0.874-0.854,0.437-1.862C76.975,147.592,76.465,149.049,76.694,150.079z M72.428,149.798
					c0.141,0.799,0.566,1.519,1.197,2.029c0.64,0.003,1.242-0.298,1.624-0.812c-0.156-0.822-0.25-1.779-0.739-2.082
					C73.73,148.946,72.985,149.254,72.428,149.798z M173.296,131.161c0.155,0.969,0.332,1.915,1.301,1.686
					c0.607-0.809,0.707-1.892,0.26-2.799c-0.631,0.172-1.182,0.563-1.551,1.104L173.296,131.161z M109.599,143.804
					c-0.364,0.853,0.114,2.384,1.103,2.362c1.145-0.53,0.375-2.872-1.093-2.373L109.599,143.804z M113.304,143.721
					c0.291,0.583,1.696,0.344,1.53-0.458s-1.561-0.208-1.52,0.447L113.304,143.721z M174.243,135.989
					c0.604-0.271,0.468-1.04,0.292-1.832c-0.885,0.032-1.332,1.801-0.281,1.822L174.243,135.989z M13.435,168.3l0.479-0.093
					c-0.094-0.271,0-0.813-0.437-0.563C13.466,167.864,13.31,167.989,13.435,168.3z M107.809,151.11c0.51,0,0.437-0.438,0.323-0.875
					l-0.468,0.094C107.5,150.587,107.563,150.928,107.809,151.11z M110.067,156c0.124-0.307,0.124-0.65,0-0.957l-0.625,0.114
					c0.052,0.479,0.073,1.04,0.614,0.885L110.067,156z M10.49,176.907h0.312l-0.094-0.469l-0.468,0.084
					c0.033,0.151,0.118,0.287,0.239,0.385H10.49z M172.078,146.729c-0.113,0.063-0.301,0.063-0.28,0.219
					c0.104-0.063,0.292-0.063,0.271-0.219H172.078z"/>
				<path fill="#7A797C" d="M201.778,74.114c0.687-0.208,0.874,0.322,0.988,0.947C202.089,75.269,201.892,74.738,201.778,74.114z"/>
				<path fill="#7A797C" d="M197.782,76.039l0.125,0.614c0,0.572-0.343,0.853-0.937,1.041c-0.354,0.25-0.396,0.718-0.968,0.843
					c-0.573,0.06-1.13-0.21-1.437-0.697c0-0.885,1.041-1.041,1.26-1.863C196.462,75.752,197.16,75.774,197.782,76.039z"/>
				<path fill="#7A797C" d="M200.133,80.586c-0.302,0.665-1.085,0.959-1.749,0.657c-0.345-0.156-0.605-0.452-0.717-0.813
					c-0.111-0.537,0.018-1.096,0.354-1.53C199.012,78.955,199.861,79.631,200.133,80.586z"/>
				<path fill="#7A797C" d="M205.722,77.714c0.863-0.292,1.353,0.853,1.113,1.561c-0.644,0.009-1.174-0.505-1.183-1.148
					C205.651,77.986,205.674,77.846,205.722,77.714z"/>
				<path fill="#7A797C" d="M207.043,79.556c0.687,0.26,1.634,0.125,1.717,1.28C207.772,81.033,207.137,80.7,207.043,79.556z"/>
				<path fill="#7A797C" d="M199.686,82.459c0.822,0.271,1.29,1.041,2.081,1.374c0.646-0.104,0.916-0.458,1.676-0.489
					c0.083,1.29,0.895,1.498,1.52,1.966c-0.084,0.75-0.136,1.53-0.198,2.31c0.521,0.968,1.987,0.531,2.675,1.249
					c0.51,0,1.27-0.271,1.373,0.385c0.188,0.843-1.279,0.572-1.936,0.853c-0.562,0-0.551,0.354-1.04,0.375
					c-1.706-0.469-2.56-2.217-3.497-3.84c-0.26-0.759,0.053-1.145-0.207-1.904c-0.261-0.759-1.718,0-2.207-0.541
					C199.572,83.69,199.482,83.043,199.686,82.459z"/>
				<path fill="#7A797C" d="M120.474,105.052c0.177,0.759-0.479,0.947-1.041,1.186c-0.417,0.219-0.542,0.625-1.166,0.708
					c-0.464-0.673-0.366-1.584,0.229-2.144C119.163,104.895,120.037,104.667,120.474,105.052z"/>
				<path fill="#7A797C" d="M211.923,89.609c-0.73,0.07-1.392-0.433-1.519-1.155c0-1.749,2.352-1.613,2.216,0.53
					C212.309,89.141,212.184,89.442,211.923,89.609z"/>
				<path fill="#7A797C" d="M208.063,92.959c0.271,0.823-0.218,1.353-0.915,1.145l-0.156-0.78
					C207.158,93.063,207.647,93.032,208.063,92.959z"/>
				<path fill="#7A797C" d="M218.167,95.821c0.021,0.41-0.064,0.819-0.25,1.186c-0.701,0.252-1.484,0.092-2.029-0.416
					C215.378,95.03,217.7,95.041,218.167,95.821z"/>
				<path fill="#7A797C" d="M209.406,97.382c0.749-0.333,1.135,0.593,0.874,1.124c-0.464,0.044-0.875-0.294-0.92-0.758
					C209.348,97.624,209.364,97.499,209.406,97.382z"/>
				<path fill="#7A797C" d="M219.24,98.808c1.321,0.063,1.342,1.925,1.707,2.904c1.04,0.593,1.831-0.448,2.768-0.708
					c1.217,0.291,1.936,3.548,0.271,3.83c0.447,0.812,1.603,0.572,1.925,1.571c0.582,0.181,1.13,0.455,1.623,0.812
					c0.115,0.489,0.178,0.937-0.104,1.155c1.354,0.177,1.27,2.175,1.354,3.621c0.426,0.708,1.311,0.739,1.748,1.436
					c0.25,0.666,0,0.979,0.135,1.593c0.396,0.697,1.124,0.895,1.343,1.841c0.522,0.518,1.009,1.07,1.456,1.655
					c0,1.759,0.791,3.216,0.656,5.047c0.495,1.01,1.065,1.98,1.707,2.904c0.116,0.578,0.004,1.178-0.313,1.675
					c0.282,0.578,0.459,1.202,0.52,1.842c0.167,0.687,1.041,0.375,1.301,0.875c0.125,0.586,0.125,1.191,0,1.778
					c1.096,2.229,1.312,4.79,0.604,7.171c0.425,0.838,0.5,1.811,0.209,2.705c0.239,0.707,0.874,0.843,1.238,1.373
					c0.252,1.508,0.225,3.051-0.084,4.548c0.5,1.915,0.125,3.236,0.697,5.203c-0.153,0.633-0.422,1.232-0.791,1.77
					c0.101,0.756,0.101,1.522,0,2.278c0.125,0.666,0.261,1.342,0.396,2.02c0.033,1.084-0.14,2.165-0.51,3.184
					c-0.104,0.645,0.188,1.572-0.073,2.081c0.114,0.625,0.239,1.239,0.364,1.863c-0.247,0.759-0.598,1.48-1.041,2.144
					c0.084,1.185-0.072,2.373-0.457,3.496c0.189,0.773,0.291,1.566,0.301,2.363c-0.479,1.041-1.04,1.894-1.539,2.893
					c0.654,1.093,0.332,2.269,0.332,3.33c-1.04,1.832-2.383,3.454-2.393,5.973c-0.261,0.406-0.875,0.572-1.27,0.896
					c0,0.666,0.385,0.76,0.426,1.374c-0.125,0.904-0.905,1.373-1.196,2.174c-0.083,0.49,0.073,1.135,0,1.613
					c-0.864,1.041-1.987,1.925-2.259,3.361c-0.543,0.427-1.045,0.904-1.498,1.426c0,0.556-0.057,1.109-0.166,1.654
					c-0.344,0.614-1.207,0.895-1.654,1.457c0.141,0.465,0.18,0.955,0.113,1.437c-0.741,0.562-1.438,1.181-2.081,1.853
					c-2.778,0.613-2.882,3.018-4.464,4.442c-0.375,0.063-0.416,0.354-0.906,0.333c-0.51,0.563-0.613,1.395-1.04,1.988
					c-1.468,0.854-1.967,2.373-3.777,3.008c-1.332,1.54-1.811,3.652-4.683,4.162c-0.926,0.779-1.363,1.883-2.227,2.705
					c-0.896,0.25-1.488,0.708-2.404,0.947c-0.591,0.488-1.025,1.141-1.249,1.873c-0.868,0.749-1.686,1.556-2.445,2.414
					c-0.64,0.256-1.307,0.441-1.987,0.552c-0.51,0.198,0,1.041-0.198,1.499c-1.181,1.319-2.771,2.203-4.517,2.508
					c-0.904,0.333-1.259,1.041-2.528,1.135c-0.833,0.395-1.04,1.228-1.79,1.643c-2.164,0-3.382,1.322-4.371,2.478
					c-2.164,0.073-2.445,1.676-4.391,1.509c-0.677,0.125-0.76,0.666-1.28,0.895c-1.802,0.017-3.323,1.341-3.59,3.122
					c-1.815,0.923-3.776,1.528-5.796,1.79c-1.291,0.801-2.945,1.363-4.101,2.248c-0.554,0.182-1.126,0.297-1.706,0.344
					c-1.207,0.406-1.947,1.123-3.123,1.571c-0.848,0.064-1.691,0.175-2.528,0.333c-1.04,0.551-1.561,1.384-2.528,1.956
					c-1.38-0.209-2.783-0.209-4.162,0c-0.854,0.406-0.938,1.312-2.217,1.04c-0.563,0.074-0.292,0.697-0.813,0.802
					c-0.52,0.104-1.186-0.093-1.8-0.124c-1.04,0.54-1.946,1.217-3.06,1.727c-0.717-0.418-1.548-0.596-2.373-0.51
					c-0.904,0.25-1.29,0.844-2.029,1.207c-2.549,0.125-4.162,1.145-6.815,1.499c-0.749,0.239-0.822-0.521-1.53-0.344
					c-1.04,0.333-1.321,1.187-2.279,1.582c-0.67,0.003-1.34-0.085-1.986-0.261c-0.773,0.27-1.605,0.319-2.404,0.146
					c-1.373,0.613-2.383,1.457-4.371,1.664c-2.447-0.508-4.986-0.342-7.347,0.479c-0.905-0.072-1.196-1.04-2.019-1.227
					c-1.107,0.143-2.171,0.519-3.122,1.102c-1.125-0.111-2.26,0.002-3.34,0.334c-0.708,0-1.301-0.209-1.988-0.261
					c-0.78,0.114-1.488,0.979-2.081,0.739c-0.697,0.146,0-0.594-0.375-1.041c-0.608-0.311-1.319-0.349-1.957-0.104
					c-0.557-0.199-1.127-0.358-1.707-0.479c-1.259,0.297-2.476,0.75-3.622,1.353c-0.647-0.024-1.284-0.177-1.873-0.448
					c-0.68,0.119-1.346,0.307-1.987,0.563c-0.729,0.135-0.906-0.531-1.437-0.688c-0.878-0.07-1.74-0.285-2.549-0.634
					c-1.041,0.177-2.29,0.593-3.018,0.261c-0.531,0.332-0.739,0.862-1.405,1.092c-0.937-0.302-1.987-0.406-2.893-0.729
					c-0.979-0.625-1.853-1.415-3.33-1.291c-0.833,0.303-1.041,1.041-1.842,1.332c-1.041,0.073-1.551-0.645-2.082-1.383
					c-1.093-0.168-2.194-0.276-3.299-0.323c-1.145,0.156-2.643,0.843-2.955-0.229c0.87-0.314,1.518-1.053,1.717-1.957
					c-0.749-1.04-2.352-0.676-3.58-0.104c-1.301-0.082-2.487-0.322-2.924-1.695c0.083-0.479,1.124-0.322,1.124-0.863
					c-0.625-0.813-1.446,0.166-1.613,0.801c-0.781,0.385-0.791,1.28-1.821,1.488c-0.375-0.271-0.323-1.041-0.271-1.395
					c-0.313-0.219-0.937,0-1.436,0.114c-1.764-1.476-4.068-2.141-6.348-1.831c-0.55-0.328-1.06-0.719-1.519-1.166
					c-0.676-0.063-1.312-0.188-1.988-0.25c-0.114-0.624,0.156-0.967,0.188-1.498c-0.445-0.66-1.192-1.051-1.988-1.041
					c-0.745-0.624-1.643-1.037-2.602-1.197c-0.484-0.474-1.053-0.855-1.675-1.123c-1.187,0-1.041,0.812-1.904,1.041
					c-0.542-0.49,0.687-0.739,0.343-1.53c-0.288-0.714-1.051-1.11-1.8-0.937c-0.739-0.643-1.667-1.029-2.643-1.104
					c-1.114-0.896-2.347-1.637-3.663-2.195c-0.562-1.249-1.707-1.613-2.081-3.121c-0.219-0.615-1.041-0.344-1.551-0.5
					c-0.875-0.394-1.717-0.856-2.519-1.385c-0.843,0-0.437,0.875-1.28,0.896c-0.635-0.249-1.291-0.489-1.426-1.499
					s1.114-0.697,1.187-1.363c-0.329-0.956-1.064-1.718-2.008-2.08c-0.5,0.124-0.718-0.146-1.28,0.082
					c-1.125-0.701-2.321-1.28-3.569-1.727c-0.457-0.672-1.011-1.271-1.644-1.779c-0.125-0.76,0.593-0.958,0.468-1.707
					c-0.385-1.977-2.3-1.676-3.289-2.758c-0.052-0.26-0.093-0.52-0.156-0.78c-0.115-1.613,2.081-1.676,3.07-2.539
					c0.766,0.021,1.518,0.204,2.206,0.541c1.041-0.146,1.603-0.687,2.373-0.302c0.229,0.563,0,0.781,0.083,1.27
					c0.437,0.832,1.457,0.78,1.8,1.759c0.125,0.708-0.677,0.802-1.259,1.04c-0.937,0.406-1.041-0.426-1.832-0.291
					c-0.271,0.656,0.604,1.041,1.041,1.249c0.198,0.988,0.656,1.581,1.457,1.654c1.103,0,1.041-0.864,1.728-1.146
					c1.634-0.551,2.362,0.229,3.122,1.041c-0.083,0.979-0.77,1.561-1.155,2.332c0.676,0.801,1.603,1.228,2.081,2.352
					c0.541,0.27,1.207,0.344,1.748,0.624c0.812,1.259,2.082,1.904,2.883,3.122c0.427,0.5,1.041,0.666,1.519,1.165
					c0.093,0.538,0.302,1.05,0.614,1.499c0.884,0.885,2.643,0.541,3.861-0.114c1.041,0,1.738,0.374,2.685,0.446l1.395-0.27
					c1.041,0.125,2.456-0.166,2.799,1.04c-0.729,0.448-2.727-0.177-3.393,0.823c0.198,1.768,1.686,1.654,2.446,2.59
					c0.26,1.041,0.77,1.686,1.644,1.779c1.186,0,1.197-0.811,2.081-1.04c0.885-0.229,1.124,0.489,1.863,0.448
					c0.406,0.416,1.134,0.332,1.218,1.217c-0.229,1.041-1.457,1.311-2.654,1.332c0.468,0.843,1.863,0.313,2.831,0.416
					c0.624-0.219,0.375-1.041,0.687-1.436c0.687-0.406,1.78-1.166,2.623-0.666c0.354,1.145,0.037,2.391-0.822,3.225
					c-0.739,0.095-1.967-0.051-2.31,0.625c0.375,0.771,1.446,0.541,1.988,1.041c0.645-0.146,1.041,0.084,1.748-0.177
					c1.181,0.603,2.528,0.793,3.83,0.541c0.5-0.208,0.354-0.854,0.188-1.499c1.707,0.094,2.685,1.249,4.704,0.864
					c0.947,0.614,2.373,0.499,3.122,1.321c0.292,0.739-0.541,0.719-0.375,1.363c1.228,1.124,3.528,0.645,5.099,1.27
					c1.675-0.363,3.611-0.541,4.766-1.259c0.935,0.223,1.827,0.595,2.643,1.103c0.75-0.137,1.519-0.137,2.269,0
					c0.375,0.386,0.521,1.113,1.187,1.041c1.363,0.053,0.937-1.041,1.842-1.332s1.041,0.197,1.52,0.354
					c0.26,0.614-0.156,0.791-0.063,1.301c0.708,0.552,1.779-0.229,2.487-0.488c0.583,0.146,0.739,0.926,1.218,1.217
					c2.081-0.063,4.163-0.063,6.244-0.094c0.885,0.364,1.853,0.594,2.768,0.916c1.041,0,1.301-0.666,2.279-0.77
					c0.666-0.198,0.895,0.281,1.499,0.188c0.826-0.322,1.609-0.746,2.331-1.26c0.677,0.021,1.335,0.227,1.904,0.594
					c2.394-0.084,3.892,1.196,6.473,0.832c0.605,0.807,1.631,1.178,2.612,0.947c0.54-0.198,0.816-0.797,0.619-1.336
					c-0.028-0.076-0.064-0.148-0.109-0.215c1.271,0.216,2.569-0.168,3.518-1.041c0.575,0.021,1.143,0.131,1.686,0.322
					c1.873-0.624,3.194-0.779,5.067-1.321c0.875-0.073,1.405,0.333,2.436,0c0.406-0.718-1.113-0.843-0.645-1.654
					c0.926-0.677,1.924-0.167,2.736-0.052c0.909-0.484,1.941-0.687,2.966-0.583c0.677,0.271,0.53,1.748,1.706,1.28
					c0.813-0.541-0.895-0.927-0.332-1.717c0.562-0.791,1.811-0.448,2.674-0.354c1.041-0.105,1.957-0.105,3.018-0.271
					c0.75-0.26,0.594-1.135,1.166-1.52c0.822,0,1.092-0.438,1.842-0.52c0.749-0.084,0.78,0.697,1.426,0.687
					c1.135,0,1.154-0.76,1.904-1.04c1.041-0.146,1.551,0.52,2.518,0.479c0.838,0.338,1.753,0.439,2.644,0.291
					c0.361-0.207,0.708-0.437,1.041-0.688c-0.229-0.779-1.041-0.779-1.271-1.529c1.197-0.406,2.332-0.863,3.466-1.322
					c1.295,0.305,2.626,0.424,3.954,0.354c0.354-0.437,0.073-1.301,0.469-1.707c1.07,0.178,2.167,0.073,3.185-0.302
					c0.572-0.229,1.113-0.738,1.592-0.957c1.041-0.322,1.687,0,2.706-0.208c0.687-0.396,0.624-1.29,1.041-1.831
					c1.55-0.447,3.121-0.906,4.588-1.385c1.041-0.625,1.239-1.779,2.279-2.393c0.813-0.25,1.207,0.094,1.811,0.135
					c1.309-0.664,2.654-1.254,4.027-1.77c0.609-0.453,1.102-1.045,1.437-1.727c0.684-0.249,1.325-0.6,1.904-1.041
					c1.134-0.344,1.873-0.104,2.986-0.427c1.27-0.728,2.081-1.759,3.778-2.196c0.291-0.207,0.551-0.437,0.842-0.645
					c0.677-0.5,0.677-1.447,1.041-2.145c0.688-0.354,1.738-0.457,2.425-0.801s0.261-1.551,0.915-1.956
					c1.229-0.292,1.749,0.479,3.123,0c0.655-0.281,0.604-1.041,0.822-1.613c1.32-1.228,3.174-2.081,4.525-3.309
					c0.969-1.156,1.752-2.455,2.321-3.851c1.946-1.404,3.819-2.842,5.807-4.162c0.515-0.447,0.956-0.97,1.312-1.551
					c0.459-0.21,0.897-0.461,1.311-0.75c0.06-0.789,0.298-1.554,0.697-2.237c0.719-0.54,1.707-0.104,1.936-0.863
					c-0.125-0.697-0.613-0.822-0.645-1.654c0-1.218,1.123-1.676,1.592-2.571c0.742-0.564,1.377-1.259,1.873-2.05
					c-0.063-0.536-0.063-1.077,0-1.612c0.478-0.809,1.031-1.567,1.654-2.27c-0.135-1.04,0.51-1.633,1.041-2.299
					c0.863-0.209,1.041,0.666,1.998,0.26c1.049-0.343,1.625-1.467,1.291-2.518c-0.417-0.927-2.446,0.53-2.831-0.417
					c-0.239-1.228,1.456-1.187,2.081-1.862c0.614-0.24,0.635,0.395,1.312,0.072s0.521-1.27,0.946-1.811
					c0.677-0.531,1.218-1.166,1.936-1.676c0.496-0.967,0.452-2.121-0.113-3.049c-0.178,0.063-0.281,0-0.344-0.094
					c-1.041,0.316-1.982,0.893-2.737,1.676c-0.76-0.385-0.593-1.853-0.312-2.373c1.186-1.04,3.027-1.57,3.996-2.727
					c0.207-0.988-0.084-2.31,0.166-3.268c0.832-0.291,0.635,0.937,1.436,0.697c1.104-0.666,1.041-2.08,0.916-3.58
					c0.223-0.533,0.33-1.107,0.313-1.686c-0.156-0.957-1.041-0.873-1.301-1.686c0-0.895-0.146-1.811-0.209-2.705
					c0.965-1.309,1.613-2.822,1.895-4.424c-0.146-0.926-1.52,0-1.779-0.779c-0.322-1.041,0.5-1.374,1.104-1.832
					c0.063-0.729,0.51-1.186,0.604-1.895c-0.188-0.395-0.583-0.488-0.938-0.634c-0.256-0.329-0.484-0.677-0.687-1.041
					c-0.007-1.011,0.244-2.006,0.729-2.893c-0.046-1.21,0.044-2.422,0.271-3.611c-0.313-0.884-0.738-1.581-1.613-1.623
					c-0.676,0.218-0.655,0.915-0.854,1.456c0.833,1.895,0.209,3.186,0,4.704c0.073,0.76,0.688,0.718,0.76,1.468
					c0.219,1.321-1.207,1.936-2.361,1.925c-0.76-1.374,0.374-2.497-0.365-4.298c0.073-0.77,0.271-1.447,0.386-2.175
					c-0.136-0.51-0.583-0.665-0.708-1.165s0.209-2.426,0.75-2.737c0.674-0.214,1.393-0.243,2.08-0.083
					c1.041-0.438,1.146-1.488,1.655-2.269c0.541-0.364,1.187-0.646,1.384-1.239c-0.377-1.027-0.428-2.146-0.146-3.205
					c-0.192-0.76-0.547-1.471-1.04-2.08c0.717-1.354-0.5-3.236-0.666-5.047c-0.178-0.604-0.781-0.594-1.145-0.906
					c-0.198-0.676,0.291-0.895,0.187-1.499c-0.233-1.29-0.749-2.512-1.509-3.58c-0.125-0.634-0.25-1.248-0.375-1.873
					c-0.916-1.977-1.384-4.651-2.268-6.681c-0.549-0.559-1.047-1.165-1.488-1.811c-0.168-1.582-0.475-3.145-0.916-4.672
					c-0.688-1.041-1.853-1.415-2.456-2.591c-0.177-0.614,0.114-0.916-0.146-1.592c-0.813-1.145-1.654-2.238-2.456-3.403
					c-0.038-0.814-0.302-1.604-0.76-2.279c0.156-0.791,0.386-1.54,0.511-2.362L219.24,98.808z M17.191,227.107
					c0.083,0.488,0.562,0.374,1.041,0.291C18.159,226.659,17.566,226.868,17.191,227.107z M220.322,205.919
					c0,0.104,0,0.208,0.063,0.312l0.313-0.062c0-0.094,0-0.188,0.114-0.188s0-0.208-0.052-0.313l-0.313,0.063
					C220.457,205.827,220.457,205.919,220.322,205.919z M80.389,256.473c-0.383-0.344-0.88-0.532-1.395-0.531
					c-0.172,0.027-0.33,0.111-0.447,0.24l0.125,0.624c0.936,0.388,1.97,0.471,2.956,0.239
					C81.481,256.462,80.877,256.556,80.389,256.473z M140.921,249.948c0.572,1.094,2.311-0.093,1.125-0.863
					C141.443,249.22,140.932,249.417,140.921,249.948L140.921,249.948z"/>
				<path fill="#7A797C" d="M126.541,131.245c0.271,0.728-0.146,1.04-0.75,1.123C125.5,131.619,125.937,130.921,126.541,131.245z"/>
				<path fill="#7A797C" d="M104.427,147.072c0.416-0.322,0.583,0.604,0.083,0.469C104.489,147.383,104.458,147.228,104.427,147.072
					z"/>
				<path fill="#7A797C" d="M225.004,131.545c0.156,0,0.313-0.072,0.468-0.094c0.461,0.43,0.648,1.077,0.49,1.687
					C224.984,133.419,224.973,132.233,225.004,131.545z"/>
				<path fill="#7A797C" d="M6.525,175.959c0.229,0.469-0.146,0.531-0.156,0.843c0.063,0.5,0.333,1.124,0.115,1.427
					c-0.731,0.409-1.656,0.16-2.082-0.563C4.308,176.605,5.328,175.284,6.525,175.959z"/>
				<path fill="#7A797C" d="M75.643,164.524l0.25,1.248c-0.219,0.666-1.478,0.635-2.082,1.041c0,0.885,0.76,1.529,0.427,2.175
					c0,0.739-0.822,0.895-1.384,1.249c-0.358,0.594-0.612,1.244-0.75,1.925c-0.628,0.561-1.216,1.167-1.758,1.811
					c-0.198,0.718-0.531,1.363-0.729,2.081c-0.458,0.635-1.103,1.156-1.592,1.77c-1.915,0.748-3.85,1.478-5.713,2.248
					c-0.552-0.027-1.087-0.199-1.551-0.5c-0.52-1.437-1.467-3.538,0.177-4.079c1.394-0.125,1.696,1.362,2.633,1.915
					c0.666-0.094,0.957-0.447,1.499-0.625c0.697-0.219,1.529,0.146,2.019-0.396c0.458-0.322,0.323-1.04,0.323-1.675
					c0.16-0.551,0.264-1.115,0.312-1.686c1.041-1.488,3.07-2.27,4.319-3.591c0.214-1.411,0.315-2.839,0.302-4.267
					c0.194-0.131,0.329-0.332,0.375-0.563C73.692,164.527,74.668,164.499,75.643,164.524z"/>
				<path fill="#7A797C" d="M226.17,135.844c0.593-0.136,0.821,0.238,1.343,0.219c0.406-0.172,0.879-0.068,1.176,0.26
					c0.094,0.832-0.459,1.217-1.156,1.52C226.628,137.831,226.441,136.833,226.17,135.844z"/>
				<path fill="#7A797C" d="M8.159,179.363c0.562,0.884-0.489,1.581-1.041,2.144c0.114,0.572,0.218,1.145,0.333,1.717
					c-0.212,1.088-0.32,2.191-0.323,3.299c-1.298,0.398-2.269,1.485-2.519,2.82c0.583,0.541,1.686,0.291,2.144,1.041
					c0.125,0.854-0.281,1.352-0.417,2.018c0.073,0.375,0.354,0.406,0.343,0.906c-0.316,0.609-0.354,1.326-0.104,1.967
					c-0.231,0.459-0.301,0.983-0.197,1.488c0.634,1.352,2.258,1.197,2.924,2.508c-0.323,0.457-1.644,0.25-1.967,0.707
					c-0.583,0.604-0.239,1.821-0.073,2.924c0.416,1.177,1.405,1.541,1.696,2.904c0.094,0.832-0.604,1.123-0.781,1.77
					c0.25,1.04,1.457,0.645,1.395,2.153c-0.364,0.437-1.686,0.219-1.603,0.968c0.135,0.208,0.313,0.344,0.437,0.563
					c1.041,0,0.666-0.916,1.416-1.094c0.624,1.749,2.019,2.363,2.716,4.007c0.177,0.604-0.208,0.854,0,1.457s0.614,0.821,0.77,1.467
					c0.396,0.479,1.041,0.583,1.363,1.187c0.139,0.465,0.182,0.954,0.125,1.437c-1.395,0.843-2.279-0.572-3.892,0
					c-0.735-1.103-1.389-2.257-1.957-3.455c-0.114-0.791,0.5-1.093,0.625-1.737c-0.354-0.992-1.35-1.602-2.394-1.467
					c-0.073-0.636-0.51-0.719-0.583-1.344c-0.955-0.873-1.717-1.936-2.237-3.121c0.109-0.66,0.313-1.302,0.604-1.904
					c-0.354-1.28-1.728-1.041-2.581-1.592c0.199-0.709,0.442-1.404,0.728-2.082c0.708-0.291,1.592-0.457,1.53-1.26
					c-0.063-0.801-1.093-0.801-1.8-0.946c-0.579-0.36-1.184-0.677-1.811-0.946c-0.312-0.666-0.822-1.041-0.895-2.082
					c0.687-0.364,1.613-0.541,1.686-1.312c0.073-0.77-0.625-0.53-0.708-1.144c0.032-0.489,0.032-0.979,0-1.469
					c-0.354-0.832-1.041-1.154-1.114-2.372c0.705-0.635,1.456-1.216,2.248-1.737c0.687-0.063,1.28,0.322,1.894-0.209
					c-0.291-1.769-2.539-0.645-3.122-1.977c-0.219-0.874,0.729-0.947,0.822-1.613c0.063-0.947,0-1.956,0.073-2.924
					c0.437-0.385,0.583-0.968,1.217-1.207c-0.161-0.582-0.161-1.197,0-1.779c0.281-0.084,0.5-0.209,0.562-0.438
					c1.041-0.156,1.415,0.563,2.362,0.51C7.003,180.06,7.128,179.394,8.159,179.363z M3.996,182.11
					c0.618,0.274,1.315,0.308,1.957,0.094c-0.125-0.77-1.78-0.812-1.998-0.094H3.996z M3.049,185.231
					c0.604,0.281,1.499-0.187,1.093-1.039c-0.361-0.246-0.853-0.152-1.098,0.209c-0.168,0.248-0.182,0.569-0.036,0.83H3.049z"/>
				<path fill="#7A797C" d="M232.299,137.395c0.063,0.77-0.271,1.258-1.187,1.363C230.281,137.862,231.447,136.853,232.299,137.395z
					"/>
				<path fill="#7A797C" d="M228.833,139.528c0.146,0.426,0.119,0.893-0.072,1.301l-0.78,0.166
					C227.179,140.266,228.075,138.819,228.833,139.528z"/>
				<path fill="#7A797C" d="M9.917,185.815c-0.167-0.094-0.177-0.406-0.406-0.406c-0.271-0.77,0.135-1.041,0.531-1.395
					c0.531,0,0.76,0.479,0.874,1.124C10.761,185.553,10.36,185.825,9.917,185.815z"/>
				<path fill="#7A797C" d="M228.199,143.7c0.604-0.166,0.896,0.136,0.958,0.781C228.408,144.876,227.908,144.221,228.199,143.7z"/>
				<path fill="#7A797C" d="M164.232,167.395c0,1.395-1.738,0.791-2.623,0.677C161.599,166.938,163.763,165.991,164.232,167.395z"/>
				<path fill="#7A797C" d="M229.386,157.217c0.861,0.594,1.078,1.773,0.486,2.635c-0.202,0.293-0.482,0.523-0.81,0.664
					c-0.396-0.696-1.04-0.978-1.457-1.654c0-0.697,0.749-0.937,1.041-1.487L229.386,157.217z"/>
				<path fill="#7A797C" d="M151.818,172.578c0.717-0.208,0.666,0.76,1.145,0.905c-0.209,0.947,0,2.176-0.938,2.612
					C150.475,175.751,149.933,173.014,151.818,172.578z"/>
				<path fill="#7A797C" d="M154.335,173.056c-0.146,0.468-0.469,0.822-1.041,0.677
					C153.368,173.317,153.732,173.098,154.335,173.056z"/>
				<path fill="#7A797C" d="M228.927,162.286l0.156,0.771c-0.281,0-0.291,0.26-0.593,0.28c-0.094-0.125-0.188-0.249-0.374-0.249
					C228.043,162.629,228.345,162.379,228.927,162.286z"/>
				<path fill="#7A797C" d="M227.482,165.522c0.238-0.094,0.301,0.094,0.499,0.063c0.354,0.739-0.354,0.76-0.219,1.343
					c0.413,0.804,0.886,1.577,1.415,2.311c0,0.738-0.843,0.874-1.041,1.498c0.479,1.321,1.041,3.216-0.416,3.632
					c-0.354-1.207-1.134-1.801-1.301-3.309c0.167-0.51,0.646-0.833,0.885-1.301c-0.125-0.697-0.613-0.822-0.655-1.655
					C226.875,167.227,227.152,166.366,227.482,165.522z"/>
				<path fill="#7A797C" d="M228.189,176.709c0,0.967,0,1.904-1.218,2.019c-0.325-0.38-0.531-0.847-0.593-1.343
					C226.244,176.147,227.658,175.418,228.189,176.709z"/>
				<path fill="#7A797C" d="M142.514,193.651l0.125,0.635c-0.229,0.363-0.729,0.218-1.093,0.208l-0.125-0.625
					C141.712,193.59,142.138,193.505,142.514,193.651z"/>
				<path fill="#7A797C" d="M10.188,220.228c0.093,0.261-0.822,0.448-0.656,0C9.699,219.781,9.844,220.208,10.188,220.228z"/>
				<path fill="#7A797C" d="M226.077,183.265c-0.323,1.28-0.125,2.903-0.479,4.163C223.724,187.094,223.766,183.223,226.077,183.265
					z"/>
				<path fill="#7A797C" d="M32.031,231.811c-0.423,0.189-0.912,0.162-1.312-0.073C30.397,230.208,32.353,230.749,32.031,231.811z"
					/>
				<path fill="#7A797C" d="M31.375,233.392c1.228-0.364,1.405,0.854,2.29,1.04c-0.625,0.542-1.78,0.125-2.3-0.187
					C31.246,233.973,31.25,233.663,31.375,233.392z"/>
				<path fill="#7A797C" d="M27.087,237.149c0.344-0.053,0.198,0.645,0.344,0.895C26.796,238.127,26.838,237.44,27.087,237.149z"/>
				<path fill="#7A797C" d="M64.748,256.786c-0.553,0.1-1.123,0.041-1.645-0.167c-0.177-0.572-0.052-0.937,0.437-1.04
					C64.142,255.715,64.611,256.184,64.748,256.786z"/>
				<path fill="#7A797C" d="M150.621,245.786c-0.063,0.386-0.863,0.614-1.218,0.396C149.33,245.703,150.35,245.62,150.621,245.786z"
					/>
				<path fill="#7A797C" d="M122.763,251.406c0.239,0.749,0,1.187-0.541,1.405c-0.431-0.16-0.705-0.584-0.677-1.041
					C121.806,251.561,122.316,251.125,122.763,251.406z"/>
			</g>
		</g>
	</g>
</g>
</svg>
